<?xml version="1.0"?>
<svg width="16" height="16" xmlns="http://www.w3.org/2000/svg" xmlns:svg="http://www.w3.org/2000/svg" preserveAspectRatio="xMidYMid meet">
 <metadata>Created by potrace 1.11, written by Peter Selinger 2001-2013</metadata>
 <g class="layer">
  <title>Layer 1</title>
  <g fill="#000000" id="svg_1" transform="rotate(90 8.00405 7.99609) translate(0 16) scale(0.002145 -0.002145)">
   <path d="m3518,7455c-2,-2 -39,-6 -83,-9c-111,-8 -153,-14 -285,-38c-63,-12 -125,-22 -137,-22c-13,-1 -23,-5 -23,-10c0,-5 -3,-7 -6,-3c-3,3 -29,-1 -57,-10c-28,-8 -59,-17 -70,-19c-39,-7 -233,-68 -272,-85c-11,-5 -56,-22 -100,-40c-81,-31 -346,-158 -355,-170c-3,-3 -19,-13 -36,-22c-54,-28 -252,-159 -283,-188c-11,-11 -24,-19 -30,-19c-5,0 -11,-3 -13,-7c-2,-5 -28,-28 -58,-52c-155,-126 -358,-338 -463,-484c-17,-23 -33,-44 -36,-47c-8,-7 -121,-179 -121,-184c0,-3 -13,-24 -29,-48c-26,-39 -171,-328 -171,-341c0,-3 -5,-18 -12,-34c-6,-15 -12,-30 -13,-33c-1,-3 -4,-12 -8,-20c-18,-46 -59,-168 -63,-187c-2,-12 -8,-33 -14,-47c-5,-13 -6,-27 -3,-30c4,-3 2,-6 -3,-6c-5,0 -11,-12 -12,-26c-3,-39 -10,-44 -40,-33c-15,6 -74,11 -132,11c-83,1 -118,-4 -169,-21c-158,-55 -258,-191 -298,-406c-9,-46 -8,-340 1,-400c13,-90 25,-166 33,-200c2,-11 6,-31 9,-45c2,-14 10,-47 16,-75c7,-27 13,-53 14,-57c1,-5 2,-9 4,-10c1,-2 3,-10 5,-18c19,-94 49,-224 59,-260c7,-25 14,-48 14,-53c0,-4 8,-33 18,-65c10,-31 18,-62 20,-69c6,-33 83,-198 123,-263c58,-96 52,-89 149,-179c32,-29 115,-68 160,-75c41,-6 42,-6 48,-42c3,-16 14,-63 25,-104c11,-41 22,-82 23,-90c2,-8 6,-22 9,-30c27,-74 28,-71 -35,-165c-74,-112 -144,-256 -175,-360c-37,-126 -50,-219 -48,-355c2,-142 5,-175 26,-269c14,-63 55,-181 87,-250c24,-53 120,-217 141,-244c6,-6 34,-41 63,-77c105,-131 360,-364 451,-411c12,-7 24,-15 27,-18c6,-7 152,-99 189,-118c80,-43 108,-59 121,-69c8,-7 20,-14 25,-15c6,-1 44,-17 85,-36c223,-103 530,-212 665,-237c6,-1 15,-5 22,-9c6,-4 24,-8 40,-9c15,-1 33,-5 38,-9c6,-4 28,-9 50,-12c22,-3 47,-8 55,-11c18,-7 76,-18 270,-51c38,-6 39,-7 175,-24c255,-32 653,-44 910,-27c158,10 228,16 261,21c17,2 57,7 89,11c32,3 66,7 76,9c9,2 39,7 66,11c26,3 57,8 68,10c11,3 35,7 54,10c18,3 43,8 55,10c11,3 32,7 46,10c27,5 222,51 255,60c11,3 29,7 41,9c12,3 40,11 63,20c23,8 43,15 46,15c6,1 12,3 85,26c30,10 60,19 65,20c6,1 35,12 65,24c77,31 94,37 102,39c24,5 250,111 344,161c290,153 493,309 714,550c35,38 110,139 110,148c0,6 4,12 9,14c15,5 116,189 140,254c12,33 25,68 30,79c9,21 30,93 37,129c11,55 16,84 20,121c8,67 8,217 -1,280c-4,33 -9,67 -10,75c0,9 -5,21 -9,28c-4,7 -5,16 -2,19c3,3 1,13 -4,23c-5,9 -11,28 -14,41c-13,70 -102,265 -157,347c-16,24 -29,47 -29,52c0,4 -4,10 -8,12c-17,7 -51,65 -43,74c10,10 69,228 78,284c6,40 17,50 54,50c14,0 29,3 33,8c4,4 11,8 14,8c27,6 52,18 52,25c0,5 6,9 13,9c19,0 108,89 147,146c19,27 36,51 40,54c24,21 142,321 165,421c2,13 19,83 35,154c17,72 33,141 36,155c3,13 13,60 24,105c10,44 21,97 24,118c15,96 18,115 26,157c5,25 7,131 6,235c-3,172 -5,197 -28,267c-76,229 -226,339 -459,332c-41,-1 -92,-7 -112,-12c-35,-10 -36,-9 -48,25c-6,19 -12,40 -13,46c-12,66 -106,304 -179,452c-76,154 -188,344 -209,353c-5,2 -8,8 -8,13c0,9 -71,109 -98,137c-7,8 -25,30 -40,50c-46,63 -83,103 -207,228c-176,177 -310,286 -516,420c-91,60 -388,217 -474,251c-39,15 -148,57 -155,58c-3,1 -12,5 -20,8c-62,25 -334,101 -404,111c-21,4 -41,8 -45,10c-3,2 -31,7 -61,11c-30,4 -58,9 -61,10c-3,2 -34,6 -70,9c-35,4 -80,9 -99,12c-36,6 -516,14 -522,9z" id="svg_2"/>
  </g>
 </g>
</svg>