<?xml version="1.0"?>
<svg width="373" height="362" xmlns="http://www.w3.org/2000/svg" xmlns:svg="http://www.w3.org/2000/svg">
 <g class="layer" id="imagebot_2">
  <title>imagebot_2</title>
  <g id="svg_2" transform="rotate(90 186.5 181)">
   <path d="m313.181945,176.114994c1.018,7.338 2.471,32.223 10.897,36.275c27.295,13.124 36.869,-48.52 39.898,-63.366c3.016,-14.773 -1.167,-49.536 -23.585,-41.179c-0.735,0.271 -1.266,0.611 -1.645,0.987c-9.782,-4.219 -21.012,-3.134 -24.582,8.824c-5.285,17.726 -3.479,40.525 -0.983,58.459z" fill="#D8B78B" id="imagebot_3"/>
   <path d="m58.536945,117.657994c-3.57,-11.958 -14.8,-13.043 -24.582,-8.824c-0.378,-0.376 -0.908,-0.716 -1.64,-0.987c-22.417,-8.357 -26.605,26.404 -23.59,41.179c3.031,14.847 12.605,76.489 39.9,63.366c8.427,-4.054 9.88,-28.938 10.897,-36.275c2.497,-17.936 4.302,-40.735 -0.985,-58.459z" fill="#D8B78B" id="imagebot_4"/>
   <path d="m338.244945,143.726994c0,-81.175 -67.833,-146.979 -151.509,-146.979c-83.672,0 -151.504,59.629 -151.504,146.979c0,163.112 67.833,146.977 151.504,146.977c83.676,-0.001 151.509,16.136 151.509,-146.977z" fill="#7F512E" id="imagebot_5" stroke="#000000" stroke-miterlimit="10" stroke-width="4.252"/>
   <path d="m61.955945,194.352994c0,75.445 56.105,136.604 125.313,136.604c69.198,0 125.305,-61.159 125.305,-136.604c0,-75.449 -0.664,-170.839 -125.85,-141.136c-141.788,-29.704 -124.768,65.687 -124.768,141.136z" fill="#D8B78B" id="imagebot_6" stroke="#000000" stroke-miterlimit="10" stroke-width="4.252"/>
   <ellipse cx="129.844574" cy="135.346146" fill="#ffffff" id="imagebot_7" rx="50.53255" ry="64.64603" stroke="#000000" stroke-miterlimit="10" stroke-width="4.252"/>
   <path d="m111.951943,155.357042c0,20.184324 10.4674,36.547606 23.382424,36.547606c12.921564,0 23.392233,-16.361647 23.392233,-36.547606c0,-20.181054 -10.467399,-36.544336 -23.392233,-36.544336c-12.913389,0.001635 -23.382424,16.363282 -23.382424,36.544336z" id="imagebot_8"/>
   <path d="m342.012945,272.087994c0,51.452 -69.52,93.164 -155.271,93.164c-85.757,0 -155.271,-41.712 -155.271,-93.164c0,-51.451 69.516,-93.162 155.271,-93.162c85.751,-0.001 155.271,41.71 155.271,93.162z" fill="#D8B78B" id="imagebot_9" stroke="#000000" stroke-miterlimit="10" stroke-width="4.252"/>
   <path d="m287.201209,151.957534c-25.405658,-36.219693 -80.627801,-27.539602 -80.627801,-27.539602" fill="none" id="imagebot_10" stroke="#000000" stroke-linecap="round" stroke-miterlimit="10" stroke-width="4.252"/>
   <path d="m36.481945,272.728994c14.69,11.513 77.205,56.535 156.008,56.543c0.005,0 0.016,0 0.016,0c51.565,0 100.214,-19.021 144.68,-56.553c-44.439,-20.98 -93.1,-31.613 -144.695,-31.613c-78.222,0.001 -140.296,24.756 -156.009,31.623z" fill="#FFFFFF" id="imagebot_11"/>
   <path d="m31.469945,272.087994c0,0 155.271,134.642 310.543,0c-155.272,-75.683 -310.543,0 -310.543,0" fill="none" id="imagebot_12" stroke="#000000" stroke-linejoin="bevel" stroke-miterlimit="10" stroke-width="4.252"/>
   <g id="imagebot_13">
    <path d="m31.470067,272.087994c0,0 155.256,37.021 310.513,0" fill="none" id="imagebot_14" stroke="#000000" stroke-miterlimit="10" stroke-width="4.252"/>
    <line fill="none" id="imagebot_15" stroke="#000000" stroke-miterlimit="10" stroke-width="4.252" x1="62.781067" x2="62.781067" y1="259.868994" y2="295.512994"/>
    <line fill="none" id="imagebot_16" stroke="#000000" stroke-miterlimit="10" stroke-width="4.252" x1="104.098067" x2="104.098067" y1="249.637994" y2="311.756994"/>
    <line fill="none" id="imagebot_17" stroke="#000000" stroke-miterlimit="10" stroke-width="4.252" x1="142.550067" x2="142.550067" y1="242.393994" y2="324.566994"/>
    <line fill="none" id="imagebot_18" stroke="#000000" stroke-miterlimit="10" stroke-width="4.252" x1="312.574067" x2="312.574067" y1="259.868994" y2="295.512994"/>
    <line fill="none" id="imagebot_19" stroke="#000000" stroke-miterlimit="10" stroke-width="4.252" x1="271.253067" x2="271.253067" y1="247.159994" y2="316.811994"/>
    <line fill="none" id="imagebot_20" stroke="#000000" stroke-miterlimit="10" stroke-width="4.252" x1="232.801067" x2="232.801067" y1="242.393994" y2="328.163994"/>
    <line fill="none" id="imagebot_21" stroke="#000000" stroke-miterlimit="10" stroke-width="4.252" x1="186.726067" x2="186.726067" y1="238.502994" y2="331.928994"/>
   </g>
   <path d="m40.078945,209.563994c-0.021,0.002 -2.501,0.576 -5.999,-1.567c-5.443,-3.332 -12.988,-12.819 -18.063,-39.301c-2.973,-11.056 -4.525,-20.007 -5.07,-27.253c-0.109,-1.451 -0.182,-2.831 -0.213,-4.146c-0.327,-13.164 3.025,-19.83 6.71,-23.192c5.869,-5.358 14.467,-4.125 18.453,-3.147c1.329,0.324 2.148,0.623 2.18,0.637l1.863,-4.979c-0.644,-0.239 -15.796,-5.772 -26.045,3.536c-8.936,8.114 -10.814,24.602 -5.656,48.95c0.732,3.464 1.609,7.088 2.621,10.871c4.333,22.586 11.214,36.907 20.446,42.56c3.222,1.975 6.024,2.416 7.888,2.416c1.323,0 2.179,-0.223 2.371,-0.28l-1.486,-5.105z" fill="black" id="imagebot_22"/>
   <path d="m359.110945,110.148994c-10.243,-9.307 -25.401,-3.775 -26.045,-3.536l1.862,4.979c0.124,-0.053 12.813,-4.627 20.632,2.512c0.369,0.334 0.731,0.706 1.096,1.109c5.019,5.675 8.713,18.456 1.921,47.215c-0.479,2.011 -1.007,4.097 -1.588,6.269l0,0c-0.017,0.067 -0.031,0.125 -0.047,0.192c-4.962,25.938 -12.383,35.491 -17.737,38.938c-3.638,2.34 -6.232,1.751 -6.278,1.738l-1.483,5.101c0.196,0.058 1.048,0.28 2.37,0.28c1.863,0 4.672,-0.444 7.894,-2.416c9.242,-5.662 16.123,-20.01 20.41,-42.453c8.201,-30.505 7.19,-50.667 -3.007,-59.928z" id="imagebot_23"/>
  </g>
 </g>
</svg>